<svg xmlns="http://www.w3.org/2000/svg" width="1200" height="1200" viewBox="0 0 1200 1200">
<!-- VIP Slot 15 PF-33K334Z9 | Group friends_core -->
<defs>
  <filter id="vip-relief" x="-20%" y="-20%" width="140%" height="140%">
    <feDropShadow dx="0" dy="2.2" stdDeviation="1.1" flood-color="#4f2f11" flood-opacity="0.45"/>
    <feDropShadow dx="0" dy="-1.1" stdDeviation="0.8" flood-color="#ffe4bf" flood-opacity="0.44"/>
  </filter>
</defs>
<rect width="1200" height="1200" fill="#ffffff"/>
<rect x="76" y="76" width="1048" height="1048" rx="18" fill="none" stroke="#8e5a20" stroke-width="3"/>
<g id="qr" transform="translate(80,80)" fill="#cd7f32">
<rect x="56.216" y="56.216" width="28.108" height="28.108" /><rect x="84.324" y="56.216" width="28.108" height="28.108" /><rect x="112.432" y="56.216" width="28.108" height="28.108" /><rect x="140.541" y="56.216" width="28.108" height="28.108" /><rect x="168.649" y="56.216" width="28.108" height="28.108" /><rect x="196.757" y="56.216" width="28.108" height="28.108" /><rect x="224.865" y="56.216" width="28.108" height="28.108" /><rect x="281.081" y="56.216" width="28.108" height="28.108" /><rect x="309.189" y="56.216" width="28.108" height="28.108" /><rect x="365.405" y="56.216" width="28.108" height="28.108" /><rect x="393.514" y="56.216" width="28.108" height="28.108" /><rect x="421.622" y="56.216" width="28.108" height="28.108" /><rect x="477.838" y="56.216" width="28.108" height="28.108" /><rect x="505.946" y="56.216" width="28.108" height="28.108" /><rect x="534.054" y="56.216" width="28.108" height="28.108" /><rect x="590.270" y="56.216" width="28.108" height="28.108" /><rect x="646.486" y="56.216" width="28.108" height="28.108" /><rect x="674.595" y="56.216" width="28.108" height="28.108" /><rect x="702.703" y="56.216" width="28.108" height="28.108" /><rect x="730.811" y="56.216" width="28.108" height="28.108" /><rect x="787.027" y="56.216" width="28.108" height="28.108" /><rect x="815.135" y="56.216" width="28.108" height="28.108" /><rect x="843.243" y="56.216" width="28.108" height="28.108" /><rect x="871.351" y="56.216" width="28.108" height="28.108" /><rect x="899.459" y="56.216" width="28.108" height="28.108" /><rect x="927.568" y="56.216" width="28.108" height="28.108" /><rect x="955.676" y="56.216" width="28.108" height="28.108" /><rect x="56.216" y="84.324" width="28.108" height="28.108" /><rect x="224.865" y="84.324" width="28.108" height="28.108" /><rect x="309.189" y="84.324" width="28.108" height="28.108" /><rect x="337.297" y="84.324" width="28.108" height="28.108" /><rect x="365.405" y="84.324" width="28.108" height="28.108" /><rect x="449.730" y="84.324" width="28.108" height="28.108" /><rect x="562.162" y="84.324" width="28.108" height="28.108" /><rect x="646.486" y="84.324" width="28.108" height="28.108" /><rect x="787.027" y="84.324" width="28.108" height="28.108" /><rect x="955.676" y="84.324" width="28.108" height="28.108" /><rect x="56.216" y="112.432" width="28.108" height="28.108" /><rect x="112.432" y="112.432" width="28.108" height="28.108" /><rect x="140.541" y="112.432" width="28.108" height="28.108" /><rect x="168.649" y="112.432" width="28.108" height="28.108" /><rect x="224.865" y="112.432" width="28.108" height="28.108" /><rect x="281.081" y="112.432" width="28.108" height="28.108" /><rect x="337.297" y="112.432" width="28.108" height="28.108" /><rect x="365.405" y="112.432" width="28.108" height="28.108" /><rect x="449.730" y="112.432" width="28.108" height="28.108" /><rect x="505.946" y="112.432" width="28.108" height="28.108" /><rect x="590.270" y="112.432" width="28.108" height="28.108" /><rect x="674.595" y="112.432" width="28.108" height="28.108" /><rect x="702.703" y="112.432" width="28.108" height="28.108" /><rect x="730.811" y="112.432" width="28.108" height="28.108" /><rect x="787.027" y="112.432" width="28.108" height="28.108" /><rect x="843.243" y="112.432" width="28.108" height="28.108" /><rect x="871.351" y="112.432" width="28.108" height="28.108" /><rect x="899.459" y="112.432" width="28.108" height="28.108" /><rect x="955.676" y="112.432" width="28.108" height="28.108" /><rect x="56.216" y="140.541" width="28.108" height="28.108" /><rect x="112.432" y="140.541" width="28.108" height="28.108" /><rect x="140.541" y="140.541" width="28.108" height="28.108" /><rect x="168.649" y="140.541" width="28.108" height="28.108" /><rect x="224.865" y="140.541" width="28.108" height="28.108" /><rect x="281.081" y="140.541" width="28.108" height="28.108" /><rect x="309.189" y="140.541" width="28.108" height="28.108" /><rect x="393.514" y="140.541" width="28.108" height="28.108" /><rect x="477.838" y="140.541" width="28.108" height="28.108" /><rect x="534.054" y="140.541" width="28.108" height="28.108" /><rect x="562.162" y="140.541" width="28.108" height="28.108" /><rect x="590.270" y="140.541" width="28.108" height="28.108" /><rect x="618.378" y="140.541" width="28.108" height="28.108" /><rect x="674.595" y="140.541" width="28.108" height="28.108" /><rect x="702.703" y="140.541" width="28.108" height="28.108" /><rect x="730.811" y="140.541" width="28.108" height="28.108" /><rect x="787.027" y="140.541" width="28.108" height="28.108" /><rect x="843.243" y="140.541" width="28.108" height="28.108" /><rect x="871.351" y="140.541" width="28.108" height="28.108" /><rect x="899.459" y="140.541" width="28.108" height="28.108" /><rect x="955.676" y="140.541" width="28.108" height="28.108" /><rect x="56.216" y="168.649" width="28.108" height="28.108" /><rect x="112.432" y="168.649" width="28.108" height="28.108" /><rect x="140.541" y="168.649" width="28.108" height="28.108" /><rect x="168.649" y="168.649" width="28.108" height="28.108" /><rect x="224.865" y="168.649" width="28.108" height="28.108" /><rect x="281.081" y="168.649" width="28.108" height="28.108" /><rect x="337.297" y="168.649" width="28.108" height="28.108" /><rect x="365.405" y="168.649" width="28.108" height="28.108" /><rect x="421.622" y="168.649" width="28.108" height="28.108" /><rect x="449.730" y="168.649" width="28.108" height="28.108" /><rect x="505.946" y="168.649" width="28.108" height="28.108" /><rect x="562.162" y="168.649" width="28.108" height="28.108" /><rect x="618.378" y="168.649" width="28.108" height="28.108" /><rect x="646.486" y="168.649" width="28.108" height="28.108" /><rect x="674.595" y="168.649" width="28.108" height="28.108" /><rect x="787.027" y="168.649" width="28.108" height="28.108" /><rect x="843.243" y="168.649" width="28.108" height="28.108" /><rect x="871.351" y="168.649" width="28.108" height="28.108" /><rect x="899.459" y="168.649" width="28.108" height="28.108" /><rect x="955.676" y="168.649" width="28.108" height="28.108" /><rect x="56.216" y="196.757" width="28.108" height="28.108" /><rect x="224.865" y="196.757" width="28.108" height="28.108" /><rect x="281.081" y="196.757" width="28.108" height="28.108" /><rect x="309.189" y="196.757" width="28.108" height="28.108" /><rect x="365.405" y="196.757" width="28.108" height="28.108" /><rect x="421.622" y="196.757" width="28.108" height="28.108" /><rect x="449.730" y="196.757" width="28.108" height="28.108" /><rect x="477.838" y="196.757" width="28.108" height="28.108" /><rect x="562.162" y="196.757" width="28.108" height="28.108" /><rect x="590.270" y="196.757" width="28.108" height="28.108" /><rect x="674.595" y="196.757" width="28.108" height="28.108" /><rect x="702.703" y="196.757" width="28.108" height="28.108" /><rect x="787.027" y="196.757" width="28.108" height="28.108" /><rect x="955.676" y="196.757" width="28.108" height="28.108" /><rect x="56.216" y="224.865" width="28.108" height="28.108" /><rect x="84.324" y="224.865" width="28.108" height="28.108" /><rect x="112.432" y="224.865" width="28.108" height="28.108" /><rect x="140.541" y="224.865" width="28.108" height="28.108" /><rect x="168.649" y="224.865" width="28.108" height="28.108" /><rect x="196.757" y="224.865" width="28.108" height="28.108" /><rect x="224.865" y="224.865" width="28.108" height="28.108" /><rect x="281.081" y="224.865" width="28.108" height="28.108" /><rect x="337.297" y="224.865" width="28.108" height="28.108" /><rect x="393.514" y="224.865" width="28.108" height="28.108" /><rect x="449.730" y="224.865" width="28.108" height="28.108" /><rect x="505.946" y="224.865" width="28.108" height="28.108" /><rect x="562.162" y="224.865" width="28.108" height="28.108" /><rect x="618.378" y="224.865" width="28.108" height="28.108" /><rect x="674.595" y="224.865" width="28.108" height="28.108" /><rect x="730.811" y="224.865" width="28.108" height="28.108" /><rect x="787.027" y="224.865" width="28.108" height="28.108" /><rect x="815.135" y="224.865" width="28.108" height="28.108" /><rect x="843.243" y="224.865" width="28.108" height="28.108" /><rect x="871.351" y="224.865" width="28.108" height="28.108" /><rect x="899.459" y="224.865" width="28.108" height="28.108" /><rect x="927.568" y="224.865" width="28.108" height="28.108" /><rect x="955.676" y="224.865" width="28.108" height="28.108" /><rect x="309.189" y="252.973" width="28.108" height="28.108" /><rect x="365.405" y="252.973" width="28.108" height="28.108" /><rect x="393.514" y="252.973" width="28.108" height="28.108" /><rect x="421.622" y="252.973" width="28.108" height="28.108" /><rect x="477.838" y="252.973" width="28.108" height="28.108" /><rect x="505.946" y="252.973" width="28.108" height="28.108" /><rect x="562.162" y="252.973" width="28.108" height="28.108" /><rect x="702.703" y="252.973" width="28.108" height="28.108" /><rect x="112.432" y="281.081" width="28.108" height="28.108" /><rect x="140.541" y="281.081" width="28.108" height="28.108" /><rect x="168.649" y="281.081" width="28.108" height="28.108" /><rect x="196.757" y="281.081" width="28.108" height="28.108" /><rect x="224.865" y="281.081" width="28.108" height="28.108" /><rect x="252.973" y="281.081" width="28.108" height="28.108" /><rect x="393.514" y="281.081" width="28.108" height="28.108" /><rect x="449.730" y="281.081" width="28.108" height="28.108" /><rect x="534.054" y="281.081" width="28.108" height="28.108" /><rect x="618.378" y="281.081" width="28.108" height="28.108" /><rect x="646.486" y="281.081" width="28.108" height="28.108" /><rect x="702.703" y="281.081" width="28.108" height="28.108" /><rect x="730.811" y="281.081" width="28.108" height="28.108" /><rect x="758.919" y="281.081" width="28.108" height="28.108" /><rect x="815.135" y="281.081" width="28.108" height="28.108" /><rect x="843.243" y="281.081" width="28.108" height="28.108" /><rect x="871.351" y="281.081" width="28.108" height="28.108" /><rect x="899.459" y="281.081" width="28.108" height="28.108" /><rect x="955.676" y="281.081" width="28.108" height="28.108" /><rect x="56.216" y="309.189" width="28.108" height="28.108" /><rect x="112.432" y="309.189" width="28.108" height="28.108" /><rect x="281.081" y="309.189" width="28.108" height="28.108" /><rect x="337.297" y="309.189" width="28.108" height="28.108" /><rect x="365.405" y="309.189" width="28.108" height="28.108" /><rect x="562.162" y="309.189" width="28.108" height="28.108" /><rect x="618.378" y="309.189" width="28.108" height="28.108" /><rect x="730.811" y="309.189" width="28.108" height="28.108" /><rect x="787.027" y="309.189" width="28.108" height="28.108" /><rect x="871.351" y="309.189" width="28.108" height="28.108" /><rect x="899.459" y="309.189" width="28.108" height="28.108" /><rect x="56.216" y="337.297" width="28.108" height="28.108" /><rect x="84.324" y="337.297" width="28.108" height="28.108" /><rect x="112.432" y="337.297" width="28.108" height="28.108" /><rect x="168.649" y="337.297" width="28.108" height="28.108" /><rect x="224.865" y="337.297" width="28.108" height="28.108" /><rect x="252.973" y="337.297" width="28.108" height="28.108" /><rect x="281.081" y="337.297" width="28.108" height="28.108" /><rect x="309.189" y="337.297" width="28.108" height="28.108" /><rect x="421.622" y="337.297" width="28.108" height="28.108" /><rect x="449.730" y="337.297" width="28.108" height="28.108" /><rect x="505.946" y="337.297" width="28.108" height="28.108" /><rect x="534.054" y="337.297" width="28.108" height="28.108" /><rect x="590.270" y="337.297" width="28.108" height="28.108" /><rect x="618.378" y="337.297" width="28.108" height="28.108" /><rect x="646.486" y="337.297" width="28.108" height="28.108" /><rect x="730.811" y="337.297" width="28.108" height="28.108" /><rect x="758.919" y="337.297" width="28.108" height="28.108" /><rect x="787.027" y="337.297" width="28.108" height="28.108" /><rect x="815.135" y="337.297" width="28.108" height="28.108" /><rect x="56.216" y="365.405" width="28.108" height="28.108" /><rect x="84.324" y="365.405" width="28.108" height="28.108" /><rect x="112.432" y="365.405" width="28.108" height="28.108" /><rect x="140.541" y="365.405" width="28.108" height="28.108" /><rect x="252.973" y="365.405" width="28.108" height="28.108" /><rect x="281.081" y="365.405" width="28.108" height="28.108" /><rect x="365.405" y="365.405" width="28.108" height="28.108" /><rect x="449.730" y="365.405" width="28.108" height="28.108" /><rect x="505.946" y="365.405" width="28.108" height="28.108" /><rect x="534.054" y="365.405" width="28.108" height="28.108" /><rect x="590.270" y="365.405" width="28.108" height="28.108" /><rect x="618.378" y="365.405" width="28.108" height="28.108" /><rect x="646.486" y="365.405" width="28.108" height="28.108" /><rect x="787.027" y="365.405" width="28.108" height="28.108" /><rect x="899.459" y="365.405" width="28.108" height="28.108" /><rect x="196.757" y="393.514" width="28.108" height="28.108" /><rect x="224.865" y="393.514" width="28.108" height="28.108" /><rect x="309.189" y="393.514" width="28.108" height="28.108" /><rect x="365.405" y="393.514" width="28.108" height="28.108" /><rect x="393.514" y="393.514" width="28.108" height="28.108" /><rect x="449.730" y="393.514" width="28.108" height="28.108" /><rect x="477.838" y="393.514" width="28.108" height="28.108" /><rect x="618.378" y="393.514" width="28.108" height="28.108" /><rect x="702.703" y="393.514" width="28.108" height="28.108" /><rect x="899.459" y="393.514" width="28.108" height="28.108" /><rect x="955.676" y="393.514" width="28.108" height="28.108" /><rect x="281.081" y="421.622" width="28.108" height="28.108" /><rect x="309.189" y="421.622" width="28.108" height="28.108" /><rect x="337.297" y="421.622" width="28.108" height="28.108" /><rect x="365.405" y="421.622" width="28.108" height="28.108" /><rect x="505.946" y="421.622" width="28.108" height="28.108" /><rect x="618.378" y="421.622" width="28.108" height="28.108" /><rect x="646.486" y="421.622" width="28.108" height="28.108" /><rect x="730.811" y="421.622" width="28.108" height="28.108" /><rect x="56.216" y="449.730" width="28.108" height="28.108" /><rect x="112.432" y="449.730" width="28.108" height="28.108" /><rect x="168.649" y="449.730" width="28.108" height="28.108" /><rect x="196.757" y="449.730" width="28.108" height="28.108" /><rect x="224.865" y="449.730" width="28.108" height="28.108" /><rect x="281.081" y="449.730" width="28.108" height="28.108" /><rect x="337.297" y="449.730" width="28.108" height="28.108" /><rect x="393.514" y="449.730" width="28.108" height="28.108" /><rect x="534.054" y="449.730" width="28.108" height="28.108" /><rect x="562.162" y="449.730" width="28.108" height="28.108" /><rect x="618.378" y="449.730" width="28.108" height="28.108" /><rect x="646.486" y="449.730" width="28.108" height="28.108" /><rect x="674.595" y="449.730" width="28.108" height="28.108" /><rect x="702.703" y="449.730" width="28.108" height="28.108" /><rect x="758.919" y="449.730" width="28.108" height="28.108" /><rect x="787.027" y="449.730" width="28.108" height="28.108" /><rect x="815.135" y="449.730" width="28.108" height="28.108" /><rect x="899.459" y="449.730" width="28.108" height="28.108" /><rect x="927.568" y="449.730" width="28.108" height="28.108" /><rect x="84.324" y="477.838" width="28.108" height="28.108" /><rect x="112.432" y="477.838" width="28.108" height="28.108" /><rect x="168.649" y="477.838" width="28.108" height="28.108" /><rect x="337.297" y="477.838" width="28.108" height="28.108" /><rect x="421.622" y="477.838" width="28.108" height="28.108" /><rect x="449.730" y="477.838" width="28.108" height="28.108" /><rect x="477.838" y="477.838" width="28.108" height="28.108" /><rect x="505.946" y="477.838" width="28.108" height="28.108" /><rect x="562.162" y="477.838" width="28.108" height="28.108" /><rect x="590.270" y="477.838" width="28.108" height="28.108" /><rect x="646.486" y="477.838" width="28.108" height="28.108" /><rect x="787.027" y="477.838" width="28.108" height="28.108" /><rect x="815.135" y="477.838" width="28.108" height="28.108" /><rect x="843.243" y="477.838" width="28.108" height="28.108" /><rect x="871.351" y="477.838" width="28.108" height="28.108" /><rect x="899.459" y="477.838" width="28.108" height="28.108" /><rect x="927.568" y="477.838" width="28.108" height="28.108" /><rect x="955.676" y="477.838" width="28.108" height="28.108" /><rect x="56.216" y="505.946" width="28.108" height="28.108" /><rect x="168.649" y="505.946" width="28.108" height="28.108" /><rect x="224.865" y="505.946" width="28.108" height="28.108" /><rect x="252.973" y="505.946" width="28.108" height="28.108" /><rect x="309.189" y="505.946" width="28.108" height="28.108" /><rect x="365.405" y="505.946" width="28.108" height="28.108" /><rect x="393.514" y="505.946" width="28.108" height="28.108" /><rect x="449.730" y="505.946" width="28.108" height="28.108" /><rect x="646.486" y="505.946" width="28.108" height="28.108" /><rect x="702.703" y="505.946" width="28.108" height="28.108" /><rect x="730.811" y="505.946" width="28.108" height="28.108" /><rect x="758.919" y="505.946" width="28.108" height="28.108" /><rect x="787.027" y="505.946" width="28.108" height="28.108" /><rect x="815.135" y="505.946" width="28.108" height="28.108" /><rect x="843.243" y="505.946" width="28.108" height="28.108" /><rect x="899.459" y="505.946" width="28.108" height="28.108" /><rect x="168.649" y="534.054" width="28.108" height="28.108" /><rect x="196.757" y="534.054" width="28.108" height="28.108" /><rect x="281.081" y="534.054" width="28.108" height="28.108" /><rect x="309.189" y="534.054" width="28.108" height="28.108" /><rect x="337.297" y="534.054" width="28.108" height="28.108" /><rect x="365.405" y="534.054" width="28.108" height="28.108" /><rect x="421.622" y="534.054" width="28.108" height="28.108" /><rect x="505.946" y="534.054" width="28.108" height="28.108" /><rect x="646.486" y="534.054" width="28.108" height="28.108" /><rect x="674.595" y="534.054" width="28.108" height="28.108" /><rect x="730.811" y="534.054" width="28.108" height="28.108" /><rect x="758.919" y="534.054" width="28.108" height="28.108" /><rect x="787.027" y="534.054" width="28.108" height="28.108" /><rect x="815.135" y="534.054" width="28.108" height="28.108" /><rect x="955.676" y="534.054" width="28.108" height="28.108" /><rect x="56.216" y="562.162" width="28.108" height="28.108" /><rect x="84.324" y="562.162" width="28.108" height="28.108" /><rect x="140.541" y="562.162" width="28.108" height="28.108" /><rect x="224.865" y="562.162" width="28.108" height="28.108" /><rect x="309.189" y="562.162" width="28.108" height="28.108" /><rect x="365.405" y="562.162" width="28.108" height="28.108" /><rect x="421.622" y="562.162" width="28.108" height="28.108" /><rect x="449.730" y="562.162" width="28.108" height="28.108" /><rect x="534.054" y="562.162" width="28.108" height="28.108" /><rect x="562.162" y="562.162" width="28.108" height="28.108" /><rect x="618.378" y="562.162" width="28.108" height="28.108" /><rect x="702.703" y="562.162" width="28.108" height="28.108" /><rect x="758.919" y="562.162" width="28.108" height="28.108" /><rect x="815.135" y="562.162" width="28.108" height="28.108" /><rect x="871.351" y="562.162" width="28.108" height="28.108" /><rect x="927.568" y="562.162" width="28.108" height="28.108" /><rect x="56.216" y="590.270" width="28.108" height="28.108" /><rect x="196.757" y="590.270" width="28.108" height="28.108" /><rect x="252.973" y="590.270" width="28.108" height="28.108" /><rect x="281.081" y="590.270" width="28.108" height="28.108" /><rect x="309.189" y="590.270" width="28.108" height="28.108" /><rect x="534.054" y="590.270" width="28.108" height="28.108" /><rect x="702.703" y="590.270" width="28.108" height="28.108" /><rect x="758.919" y="590.270" width="28.108" height="28.108" /><rect x="815.135" y="590.270" width="28.108" height="28.108" /><rect x="871.351" y="590.270" width="28.108" height="28.108" /><rect x="955.676" y="590.270" width="28.108" height="28.108" /><rect x="168.649" y="618.378" width="28.108" height="28.108" /><rect x="224.865" y="618.378" width="28.108" height="28.108" /><rect x="252.973" y="618.378" width="28.108" height="28.108" /><rect x="281.081" y="618.378" width="28.108" height="28.108" /><rect x="505.946" y="618.378" width="28.108" height="28.108" /><rect x="646.486" y="618.378" width="28.108" height="28.108" /><rect x="730.811" y="618.378" width="28.108" height="28.108" /><rect x="787.027" y="618.378" width="28.108" height="28.108" /><rect x="843.243" y="618.378" width="28.108" height="28.108" /><rect x="871.351" y="618.378" width="28.108" height="28.108" /><rect x="899.459" y="618.378" width="28.108" height="28.108" /><rect x="927.568" y="618.378" width="28.108" height="28.108" /><rect x="955.676" y="618.378" width="28.108" height="28.108" /><rect x="56.216" y="646.486" width="28.108" height="28.108" /><rect x="112.432" y="646.486" width="28.108" height="28.108" /><rect x="140.541" y="646.486" width="28.108" height="28.108" /><rect x="252.973" y="646.486" width="28.108" height="28.108" /><rect x="309.189" y="646.486" width="28.108" height="28.108" /><rect x="365.405" y="646.486" width="28.108" height="28.108" /><rect x="421.622" y="646.486" width="28.108" height="28.108" /><rect x="477.838" y="646.486" width="28.108" height="28.108" /><rect x="562.162" y="646.486" width="28.108" height="28.108" /><rect x="590.270" y="646.486" width="28.108" height="28.108" /><rect x="618.378" y="646.486" width="28.108" height="28.108" /><rect x="646.486" y="646.486" width="28.108" height="28.108" /><rect x="674.595" y="646.486" width="28.108" height="28.108" /><rect x="702.703" y="646.486" width="28.108" height="28.108" /><rect x="758.919" y="646.486" width="28.108" height="28.108" /><rect x="787.027" y="646.486" width="28.108" height="28.108" /><rect x="815.135" y="646.486" width="28.108" height="28.108" /><rect x="843.243" y="646.486" width="28.108" height="28.108" /><rect x="927.568" y="646.486" width="28.108" height="28.108" /><rect x="84.324" y="674.595" width="28.108" height="28.108" /><rect x="112.432" y="674.595" width="28.108" height="28.108" /><rect x="196.757" y="674.595" width="28.108" height="28.108" /><rect x="224.865" y="674.595" width="28.108" height="28.108" /><rect x="252.973" y="674.595" width="28.108" height="28.108" /><rect x="281.081" y="674.595" width="28.108" height="28.108" /><rect x="309.189" y="674.595" width="28.108" height="28.108" /><rect x="393.514" y="674.595" width="28.108" height="28.108" /><rect x="477.838" y="674.595" width="28.108" height="28.108" /><rect x="505.946" y="674.595" width="28.108" height="28.108" /><rect x="534.054" y="674.595" width="28.108" height="28.108" /><rect x="562.162" y="674.595" width="28.108" height="28.108" /><rect x="618.378" y="674.595" width="28.108" height="28.108" /><rect x="674.595" y="674.595" width="28.108" height="28.108" /><rect x="758.919" y="674.595" width="28.108" height="28.108" /><rect x="787.027" y="674.595" width="28.108" height="28.108" /><rect x="815.135" y="674.595" width="28.108" height="28.108" /><rect x="56.216" y="702.703" width="28.108" height="28.108" /><rect x="140.541" y="702.703" width="28.108" height="28.108" /><rect x="168.649" y="702.703" width="28.108" height="28.108" /><rect x="196.757" y="702.703" width="28.108" height="28.108" /><rect x="309.189" y="702.703" width="28.108" height="28.108" /><rect x="393.514" y="702.703" width="28.108" height="28.108" /><rect x="421.622" y="702.703" width="28.108" height="28.108" /><rect x="505.946" y="702.703" width="28.108" height="28.108" /><rect x="534.054" y="702.703" width="28.108" height="28.108" /><rect x="787.027" y="702.703" width="28.108" height="28.108" /><rect x="815.135" y="702.703" width="28.108" height="28.108" /><rect x="871.351" y="702.703" width="28.108" height="28.108" /><rect x="84.324" y="730.811" width="28.108" height="28.108" /><rect x="112.432" y="730.811" width="28.108" height="28.108" /><rect x="140.541" y="730.811" width="28.108" height="28.108" /><rect x="196.757" y="730.811" width="28.108" height="28.108" /><rect x="224.865" y="730.811" width="28.108" height="28.108" /><rect x="281.081" y="730.811" width="28.108" height="28.108" /><rect x="337.297" y="730.811" width="28.108" height="28.108" /><rect x="449.730" y="730.811" width="28.108" height="28.108" /><rect x="505.946" y="730.811" width="28.108" height="28.108" /><rect x="590.270" y="730.811" width="28.108" height="28.108" /><rect x="674.595" y="730.811" width="28.108" height="28.108" /><rect x="702.703" y="730.811" width="28.108" height="28.108" /><rect x="730.811" y="730.811" width="28.108" height="28.108" /><rect x="758.919" y="730.811" width="28.108" height="28.108" /><rect x="787.027" y="730.811" width="28.108" height="28.108" /><rect x="815.135" y="730.811" width="28.108" height="28.108" /><rect x="843.243" y="730.811" width="28.108" height="28.108" /><rect x="899.459" y="730.811" width="28.108" height="28.108" /><rect x="955.676" y="730.811" width="28.108" height="28.108" /><rect x="365.405" y="758.919" width="28.108" height="28.108" /><rect x="393.514" y="758.919" width="28.108" height="28.108" /><rect x="421.622" y="758.919" width="28.108" height="28.108" /><rect x="449.730" y="758.919" width="28.108" height="28.108" /><rect x="505.946" y="758.919" width="28.108" height="28.108" /><rect x="646.486" y="758.919" width="28.108" height="28.108" /><rect x="674.595" y="758.919" width="28.108" height="28.108" /><rect x="702.703" y="758.919" width="28.108" height="28.108" /><rect x="730.811" y="758.919" width="28.108" height="28.108" /><rect x="843.243" y="758.919" width="28.108" height="28.108" /><rect x="871.351" y="758.919" width="28.108" height="28.108" /><rect x="927.568" y="758.919" width="28.108" height="28.108" /><rect x="955.676" y="758.919" width="28.108" height="28.108" /><rect x="56.216" y="787.027" width="28.108" height="28.108" /><rect x="84.324" y="787.027" width="28.108" height="28.108" /><rect x="112.432" y="787.027" width="28.108" height="28.108" /><rect x="140.541" y="787.027" width="28.108" height="28.108" /><rect x="168.649" y="787.027" width="28.108" height="28.108" /><rect x="196.757" y="787.027" width="28.108" height="28.108" /><rect x="224.865" y="787.027" width="28.108" height="28.108" /><rect x="281.081" y="787.027" width="28.108" height="28.108" /><rect x="309.189" y="787.027" width="28.108" height="28.108" /><rect x="337.297" y="787.027" width="28.108" height="28.108" /><rect x="421.622" y="787.027" width="28.108" height="28.108" /><rect x="449.730" y="787.027" width="28.108" height="28.108" /><rect x="534.054" y="787.027" width="28.108" height="28.108" /><rect x="646.486" y="787.027" width="28.108" height="28.108" /><rect x="674.595" y="787.027" width="28.108" height="28.108" /><rect x="702.703" y="787.027" width="28.108" height="28.108" /><rect x="730.811" y="787.027" width="28.108" height="28.108" /><rect x="787.027" y="787.027" width="28.108" height="28.108" /><rect x="843.243" y="787.027" width="28.108" height="28.108" /><rect x="899.459" y="787.027" width="28.108" height="28.108" /><rect x="927.568" y="787.027" width="28.108" height="28.108" /><rect x="56.216" y="815.135" width="28.108" height="28.108" /><rect x="224.865" y="815.135" width="28.108" height="28.108" /><rect x="281.081" y="815.135" width="28.108" height="28.108" /><rect x="393.514" y="815.135" width="28.108" height="28.108" /><rect x="449.730" y="815.135" width="28.108" height="28.108" /><rect x="505.946" y="815.135" width="28.108" height="28.108" /><rect x="534.054" y="815.135" width="28.108" height="28.108" /><rect x="730.811" y="815.135" width="28.108" height="28.108" /><rect x="843.243" y="815.135" width="28.108" height="28.108" /><rect x="871.351" y="815.135" width="28.108" height="28.108" /><rect x="899.459" y="815.135" width="28.108" height="28.108" /><rect x="927.568" y="815.135" width="28.108" height="28.108" /><rect x="955.676" y="815.135" width="28.108" height="28.108" /><rect x="56.216" y="843.243" width="28.108" height="28.108" /><rect x="112.432" y="843.243" width="28.108" height="28.108" /><rect x="140.541" y="843.243" width="28.108" height="28.108" /><rect x="168.649" y="843.243" width="28.108" height="28.108" /><rect x="224.865" y="843.243" width="28.108" height="28.108" /><rect x="281.081" y="843.243" width="28.108" height="28.108" /><rect x="337.297" y="843.243" width="28.108" height="28.108" /><rect x="365.405" y="843.243" width="28.108" height="28.108" /><rect x="393.514" y="843.243" width="28.108" height="28.108" /><rect x="449.730" y="843.243" width="28.108" height="28.108" /><rect x="505.946" y="843.243" width="28.108" height="28.108" /><rect x="562.162" y="843.243" width="28.108" height="28.108" /><rect x="590.270" y="843.243" width="28.108" height="28.108" /><rect x="618.378" y="843.243" width="28.108" height="28.108" /><rect x="674.595" y="843.243" width="28.108" height="28.108" /><rect x="702.703" y="843.243" width="28.108" height="28.108" /><rect x="730.811" y="843.243" width="28.108" height="28.108" /><rect x="758.919" y="843.243" width="28.108" height="28.108" /><rect x="787.027" y="843.243" width="28.108" height="28.108" /><rect x="815.135" y="843.243" width="28.108" height="28.108" /><rect x="843.243" y="843.243" width="28.108" height="28.108" /><rect x="871.351" y="843.243" width="28.108" height="28.108" /><rect x="927.568" y="843.243" width="28.108" height="28.108" /><rect x="955.676" y="843.243" width="28.108" height="28.108" /><rect x="56.216" y="871.351" width="28.108" height="28.108" /><rect x="112.432" y="871.351" width="28.108" height="28.108" /><rect x="140.541" y="871.351" width="28.108" height="28.108" /><rect x="168.649" y="871.351" width="28.108" height="28.108" /><rect x="224.865" y="871.351" width="28.108" height="28.108" /><rect x="281.081" y="871.351" width="28.108" height="28.108" /><rect x="309.189" y="871.351" width="28.108" height="28.108" /><rect x="365.405" y="871.351" width="28.108" height="28.108" /><rect x="393.514" y="871.351" width="28.108" height="28.108" /><rect x="421.622" y="871.351" width="28.108" height="28.108" /><rect x="449.730" y="871.351" width="28.108" height="28.108" /><rect x="477.838" y="871.351" width="28.108" height="28.108" /><rect x="505.946" y="871.351" width="28.108" height="28.108" /><rect x="534.054" y="871.351" width="28.108" height="28.108" /><rect x="590.270" y="871.351" width="28.108" height="28.108" /><rect x="618.378" y="871.351" width="28.108" height="28.108" /><rect x="674.595" y="871.351" width="28.108" height="28.108" /><rect x="702.703" y="871.351" width="28.108" height="28.108" /><rect x="843.243" y="871.351" width="28.108" height="28.108" /><rect x="871.351" y="871.351" width="28.108" height="28.108" /><rect x="899.459" y="871.351" width="28.108" height="28.108" /><rect x="927.568" y="871.351" width="28.108" height="28.108" /><rect x="955.676" y="871.351" width="28.108" height="28.108" /><rect x="56.216" y="899.459" width="28.108" height="28.108" /><rect x="112.432" y="899.459" width="28.108" height="28.108" /><rect x="140.541" y="899.459" width="28.108" height="28.108" /><rect x="168.649" y="899.459" width="28.108" height="28.108" /><rect x="224.865" y="899.459" width="28.108" height="28.108" /><rect x="281.081" y="899.459" width="28.108" height="28.108" /><rect x="309.189" y="899.459" width="28.108" height="28.108" /><rect x="337.297" y="899.459" width="28.108" height="28.108" /><rect x="365.405" y="899.459" width="28.108" height="28.108" /><rect x="477.838" y="899.459" width="28.108" height="28.108" /><rect x="534.054" y="899.459" width="28.108" height="28.108" /><rect x="562.162" y="899.459" width="28.108" height="28.108" /><rect x="590.270" y="899.459" width="28.108" height="28.108" /><rect x="646.486" y="899.459" width="28.108" height="28.108" /><rect x="702.703" y="899.459" width="28.108" height="28.108" /><rect x="758.919" y="899.459" width="28.108" height="28.108" /><rect x="787.027" y="899.459" width="28.108" height="28.108" /><rect x="815.135" y="899.459" width="28.108" height="28.108" /><rect x="871.351" y="899.459" width="28.108" height="28.108" /><rect x="927.568" y="899.459" width="28.108" height="28.108" /><rect x="955.676" y="899.459" width="28.108" height="28.108" /><rect x="56.216" y="927.568" width="28.108" height="28.108" /><rect x="224.865" y="927.568" width="28.108" height="28.108" /><rect x="337.297" y="927.568" width="28.108" height="28.108" /><rect x="365.405" y="927.568" width="28.108" height="28.108" /><rect x="393.514" y="927.568" width="28.108" height="28.108" /><rect x="421.622" y="927.568" width="28.108" height="28.108" /><rect x="449.730" y="927.568" width="28.108" height="28.108" /><rect x="534.054" y="927.568" width="28.108" height="28.108" /><rect x="618.378" y="927.568" width="28.108" height="28.108" /><rect x="674.595" y="927.568" width="28.108" height="28.108" /><rect x="702.703" y="927.568" width="28.108" height="28.108" /><rect x="787.027" y="927.568" width="28.108" height="28.108" /><rect x="815.135" y="927.568" width="28.108" height="28.108" /><rect x="843.243" y="927.568" width="28.108" height="28.108" /><rect x="955.676" y="927.568" width="28.108" height="28.108" /><rect x="56.216" y="955.676" width="28.108" height="28.108" /><rect x="84.324" y="955.676" width="28.108" height="28.108" /><rect x="112.432" y="955.676" width="28.108" height="28.108" /><rect x="140.541" y="955.676" width="28.108" height="28.108" /><rect x="168.649" y="955.676" width="28.108" height="28.108" /><rect x="196.757" y="955.676" width="28.108" height="28.108" /><rect x="224.865" y="955.676" width="28.108" height="28.108" /><rect x="309.189" y="955.676" width="28.108" height="28.108" /><rect x="365.405" y="955.676" width="28.108" height="28.108" /><rect x="393.514" y="955.676" width="28.108" height="28.108" /><rect x="421.622" y="955.676" width="28.108" height="28.108" /><rect x="505.946" y="955.676" width="28.108" height="28.108" /><rect x="534.054" y="955.676" width="28.108" height="28.108" /><rect x="618.378" y="955.676" width="28.108" height="28.108" /><rect x="646.486" y="955.676" width="28.108" height="28.108" /><rect x="730.811" y="955.676" width="28.108" height="28.108" /><rect x="758.919" y="955.676" width="28.108" height="28.108" /><rect x="843.243" y="955.676" width="28.108" height="28.108" /><rect x="871.351" y="955.676" width="28.108" height="28.108" />
</g>
<rect id="vip-box-bg" x="385" y="522" width="430" height="156" rx="18" fill="#ffffff"/>
<text id="vip-text" x="600" y="604" text-anchor="middle" dominant-baseline="middle"
  font-family="Didot, 'Times New Roman', Georgia, serif" font-size="132" font-weight="700" letter-spacing="8" fill="#d49a4e" filter="url(#vip-relief)">VIP</text>
<text id="vip-text-shine" x="600" y="602" text-anchor="middle" dominant-baseline="middle"
  font-family="Didot, 'Times New Roman', Georgia, serif" font-size="132" font-weight="700" letter-spacing="8" fill="#ffe4bf" opacity="0.28">VIP</text>
</svg>